<?xml version="1.0" standalone="no"?>
<!DOCTYPE svg PUBLIC "-//W3C//DTD SVG 20010904//EN"
 "http://www.w3.org/TR/2001/REC-SVG-20010904/DTD/svg10.dtd">
<svg version="1.0" xmlns="http://www.w3.org/2000/svg"
 width="1920.000000pt" height="1920.000000pt" viewBox="0 0 1920.000000 1920.000000"
 preserveAspectRatio="xMidYMid meet">

<g transform="translate(0.000000,1920.000000) scale(0.100000,-0.100000)"
fill="#000000" stroke="none">
<path d="M0 9600 l0 -9600 9600 0 9600 0 0 9600 0 9600 -9600 0 -9600 0 0
-9600z m10418 1313 c1648 -4079 1872 -4633 1872 -4638 0 -3 -172 -5 -382 -5
l-383 0 -324 803 c-178 441 -559 1383 -846 2092 -287 710 -573 1417 -636 1573
-63 155 -116 282 -119 282 -3 0 -182 -439 -399 -975 -217 -537 -397 -977 -400
-979 -6 -4 -487 541 -509 578 -13 19 6 72 201 551 117 292 414 1024 658 1628
244 603 446 1097 449 1097 3 0 371 -903 818 -2007z m-2552 -993 c279 -322 630
-722 778 -890 149 -168 423 -479 610 -693 186 -213 342 -387 346 -387 4 0 175
192 380 426 257 293 375 422 380 413 21 -39 290 -744 288 -755 -3 -13 -1040
-1203 -1048 -1203 -3 0 -466 529 -1030 1174 -564 646 -1027 1174 -1030 1174
-3 1 -286 -654 -629 -1454 l-625 -1455 -403 0 c-222 0 -403 3 -403 6 0 5 947
2215 1670 3897 l163 378 22 -23 c13 -13 251 -286 531 -608z m4948 -1526 c498
-1162 906 -2114 906 -2118 0 -3 -181 -6 -403 -6 l-403 0 -624 1455 c-344 800
-627 1455 -630 1454 -3 0 -63 -67 -134 -150 -71 -82 -132 -149 -135 -149 -7 0
-293 732 -295 754 0 8 177 217 394 465 372 427 395 450 406 429 6 -13 419
-973 918 -2134z m-4694 -85 c144 -160 260 -294 258 -299 -2 -5 -160 -398 -353
-874 l-350 -866 -382 0 c-211 0 -383 2 -383 5 0 7 928 2303 937 2318 2 4 6 7
8 7 2 0 121 -131 265 -291z"/>
</g>
</svg>
